<?xml version="1.0" encoding="utf-8"?>
<!-- Generator: Adobe Illustrator 25.2.0, SVG Export Plug-In . SVG Version: 6.00 Build 0)  -->
<svg version="1.1" id="Layer_1" xmlns="http://www.w3.org/2000/svg" xmlns:xlink="http://www.w3.org/1999/xlink" x="0px" y="0px"
	 viewBox="0 0 1400 1000" style="enable-background:new 0 0 1400 1000;" xml:space="preserve">
<style type="text/css">
	.st0{fill:#00B2AE;}
	.st1{fill:#E7D536;}
</style>
<g>
	<g>
		<rect x="440.8" y="425.5" class="st0" width="21.4" height="148"/>
		<path class="st0" d="M437.2,372.9H311.7c-3.1,0-6.1,0.6-8.9,1.6c-7.2,2.7-12.8,8.6-15.1,16c-0.7,2.4-1.1,4.9-1.1,7.5v6.2h10.2H308
			v-6.2c0-2,1.6-3.7,3.7-3.7h4.4h121.1c2,0,3.7,1.6,3.7,3.7v6.2h21.4v-6.2C462.2,384.1,451,372.9,437.2,372.9z"/>
		<rect x="286.6" y="425.5" class="st0" width="21.4" height="148"/>
		<polygon class="st1" points="435.8,573.6 336.9,425.5 311.2,425.5 410.1,573.6 		"/>
		<path class="st0" d="M440.8,595v7.1c0,2-1.6,3.7-3.7,3.7h-5.6H311.7c-2,0-3.7-1.6-3.7-3.7V595h-21.4v7.1
			c0,13.8,11.2,25.1,25.1,25.1h125.5c2.7,0,5.4-0.4,7.8-1.3c7.2-2.4,13-8,15.7-15.1c1-2.7,1.6-5.6,1.6-8.7V595h-12.1H440.8z"/>
	</g>
	<path class="st0" d="M527.5,411.5h30.8L641,542.9V411.5h30.5v179.1l-30.5,0l-82.8-130.6v130.6h-30.8V411.5z"/>
	<path class="st1" d="M700.6,447.7h4.2c13.2,0,23.9-3.1,32-9.4c8.1-6.3,13.1-15.2,14.9-26.8h22.4v179.1h-30.5V461.1l-11.4,3.7
		c-4.3,1.2-9.1,2.1-14.4,2.9c-5.3,0.7-11,1.1-17.1,1.1V447.7z"/>
	<path class="st0" d="M926.4,467.8c0-10.8-3.9-19.3-11.8-25.7c-7.9-6.4-18.3-9.6-31.4-9.6c-17.7,0-30,5.2-36.9,15.7
		c-6.9,10.5-11.5,19.8-13.8,28c-2.3,8.2-3.5,16.5-3.5,25c0,19.2,4.7,35,14.2,47.3c9.4,12.3,21.5,18.4,36.3,18.4
		c10.9,0,19.4-1.7,25.5-5c6-3.3,10.9-8.2,14.5-14.7c3.6-6.5,5.9-11.3,6.8-14.4c0.9-3.1,1.4-6.9,1.4-11.2h31.3c0,9.3-1.4,17.3-4.1,24
		s-7.6,14.3-14.5,22.8c-7,8.5-15.4,14.9-25.2,19c-9.9,4.1-22.1,6.2-36.6,6.2c-23.8,0-43.3-8.6-58.4-25.9
		c-15.1-17.2-22.6-39.6-22.6-67.2c0-28.2,7.9-51,23.8-68.4c15.9-17.4,36.7-26.1,62.3-26.1c12.6,0,23.2,1.7,31.8,5
		c8.6,3.3,16.3,8.6,23,15.8c6.7,7.2,11.4,13.6,14,19.2c2.6,5.6,4.5,12.8,5.5,21.6H926.4z"/>
	<path class="st0" d="M982.3,411.5h129.7v26.8h-98.9V485h91.4v25.1h-91.4v53.6h100.3v26.8H982.3V411.5z"/>
</g>
</svg>
